#!OML:ASF F:\VICON\USERDATA\INSTALL\rory3\rory3.ASF
:FULLY-SPECIFIED
:DEGREES
1077
root 0.428237 17.6455 37.6562 -1.06129 -4.79998 -5.048
lowerback 9.75442 1.75374 5.62829
upperback -0.348723 3.07112 1.51465
thorax -5.63415 1.36854 -2.01352
lowerneck -16.5391 -3.46355 -1.67937
upperneck 20.2196 -4.79038 1.81677
head 9.17235 -2.16858 0.291864
rclavicle 9.2497e-015 3.04141e-014
rhumerus -18.8179 -6.53021 -82.4007
rradius 34.4995
rwrist -2.16887
rhand -18.9899 24.8183
rfingers 7.12502
rthumb 7.31492 -5.03529
lclavicle 9.2497e-015 3.04141e-014
lhumerus -38.713 12.7344 78.0284
lradius 17.4864
lwrist 0.433787
lhand -29.2634 23.4354
lfingers 7.12502
lthumb -2.60614 53.3993
rfemur 12.8378 7.31915 30.8623
rtibia 29.9574
rfoot -15.6388 -6.92486
rtoes -12.4561
lfemur -24.6489 -2.87055 -13.6584
ltibia 20.1334
lfoot -0.625331 -0.903645
ltoes -6.52303
1078
root 0.456805 17.6517 37.8791 -1.2937 -4.78486 -4.54871
lowerback 9.68969 1.78382 5.18805
upperback -0.28077 3.04316 1.34303
thorax -5.53964 1.36915 -1.93954
lowerneck -16.5733 -3.52874 -1.72387
upperneck 20.3558 -4.9079 1.96505
head 9.23356 -2.20871 0.332991
rclavicle -8.04457e-016 -2.61402e-014
rhumerus -19.1948 -7.13745 -82.4498
rradius 34.3546
rwrist -1.83086
rhand -19.3407 25.233
rfingers 7.12502
rthumb 6.97623 -4.63202
lclavicle -8.04457e-016 -2.61402e-014
lhumerus -38.5429 12.9782 77.7341
lradius 17.0909
lwrist 0.0073998
lhand -27.7104 14.115
lfingers 7.12502
lthumb -1.1062 44.0919
rfemur 12.4859 6.94381 30.0682
rtibia 32.0757
rfoot -14.2243 -6.1725
rtoes -13.5919
lfemur -24.2893 -2.76282 -14.3674
ltibia 20.9631
lfoot -0.675062 -2.19042
ltoes -5.19631
1079
root 0.486469 17.6664 38.0905 -1.41978 -4.53227 -4.16616
lowerback 9.74815 1.76216 4.95623
upperback -0.273486 2.98158 1.16954
thorax -5.57076 1.34235 -1.98543
lowerneck -16.8035 -3.57021 -1.67648
upperneck 20.6176 -4.97075 1.91179
head 9.3654 -2.23521 0.292731
rclavicle -1.47567e-014 -1.31198e-014
rhumerus -19.5958 -8.12607 -82.4064
rradius 34.2011
rwrist -1.23615
rhand -19.6048 25.0445
rfingers 7.12502
rthumb 6.7213 -4.8288
lclavicle -1.47567e-014 -1.31198e-014
lhumerus -38.3236 13.4081 77.3598
lradius 16.8164
lwrist -0.62077
lhand -27.4348 17.5339
lfingers 7.12502
lthumb -0.840043 47.512
rfemur 11.6952 6.39032 29.3285
rtibia 34.3983
rfoot -12.4339 -5.49479
rtoes -13.828
lfemur -24.0961 -2.80203 -14.9776
ltibia 21.8624
lfoot -0.246808 -3.73261
ltoes -0.81269
1080
root 0.5073 17.6796 38.3018 -1.72501 -4.41268 -3.86664
lowerback 9.92972 1.76494 4.67901
upperback -0.250102 2.95713 1.05763
thorax -5.65737 1.33464 -1.95126
lowerneck -16.6896 -3.57789 -1.5936
upperneck 20.6564 -4.99011 1.84247
head 9.35402 -2.24633 0.254579
rclavicle -3.935e-014 7.25564e-015
rhumerus -20.207 -8.7388 -82.3952
rradius 34.1988
rwrist -1.14316
rhand -19.8453 24.5468
rfingers 7.12502
rthumb 6.48918 -5.33375
lclavicle -3.935e-014 7.25564e-015
lhumerus -38.1014 13.847 76.9475
lradius 16.3147
lwrist -1.3674
lhand -27.6682 13.8882
lfingers 7.12502
lthumb -1.06545 43.8652
rfemur 11.0209 6.18185 28.8535
rtibia 36.7808
rfoot -10.0137 -5.03452
rtoes -12.8519
lfemur -23.6463 -2.5718 -15.5605
ltibia 22.8166
lfoot -0.137192 -4.87559
ltoes 3.45644
1081
root 0.531573 17.688 38.5264 -1.96303 -4.32717 -3.56266
lowerback 9.82711 1.73348 4.36104
upperback -0.216178 2.86737 0.989711
thorax -5.58072 1.3013 -1.82718
lowerneck -16.4356 -3.60241 -1.61835
upperneck 20.5679 -5.03744 1.92218
head 9.28041 -2.26507 0.28508
rclavicle -3.29812e-014 -2.39536e-014
rhumerus -20.7275 -9.22546 -82.3923
rradius 34.0322
rwrist -1.16875
rhand -19.8696 24.2073
rfingers 7.12502
rthumb 6.46569 -5.67401
lclavicle -3.29812e-014 -2.39536e-014
lhumerus -37.9717 14.2667 76.5884
lradius 15.8725
lwrist -1.83569
lhand -27.4111 18.3582
lfingers 7.12502
lthumb -0.817147 48.3364
rfemur 10.2704 5.8348 28.2315
rtibia 39.1826
rfoot -7.06758 -4.49726
rtoes -10.9878
lfemur -23.1875 -2.17297 -16.2509
ltibia 23.7945
lfoot -0.789462 -5.15834
ltoes 2.26789
1082
root 0.573623 17.699 38.7558 -1.98066 -4.02444 -3.15556
lowerback 9.48848 1.66715 4.26372
upperback -0.246091 2.73906 0.781868
thorax -5.42287 1.24196 -1.95957
lowerneck -16.3414 -3.65917 -1.6911
upperneck 20.6531 -5.14592 2.10941
head 9.30251 -2.30051 0.34806
rclavicle 2.33541e-014 1.44616e-014
rhumerus -21.3295 -10.0248 -82.3581
rradius 33.9368
rwrist -1.40265
rhand -19.433 23.4002
rfingers 7.12502
rthumb 6.88722 -6.46772
lclavicle 2.33541e-014 1.44616e-014
lhumerus -37.9069 14.3389 76.374
lradius 15.8084
lwrist -1.89881
lhand -28.2948 18.4508
lfingers 7.12502
lthumb -1.67068 48.424
rfemur 9.19616 5.02091 27.1997
rtibia 41.5831
rfoot -3.44575 -3.75843
rtoes -8.84255
lfemur -22.9371 -1.87508 -17.1398
ltibia 24.812
lfoot -1.6418 -4.96027
ltoes -1.37239
1083
root 0.614255 17.712 38.9723 -2.09657 -3.8201 -2.87397
lowerback 9.5123 1.62487 4.19811
upperback -0.331232 2.67455 0.688637
thorax -5.52833 1.20707 -2.01437
lowerneck -16.0267 -3.62648 -1.69244
upperneck 20.5488 -5.0807 2.02484
head 9.20451 -2.28422 0.334369
rclavicle -4.73868e-014 -5.81445e-015
rhumerus -22.1712 -10.7203 -82.129
rradius 33.905
rwrist -1.41219
rhand -19.0946 22.9685
rfingers 7.12502
rthumb 7.21387 -6.88858
lclavicle -4.73868e-014 -5.81445e-015
lhumerus -37.978 14.4793 76.1761
lradius 15.9611
lwrist -2.09318
lhand -30.0623 16.0283
lfingers 7.12502
lthumb -3.37764 45.9813
rfemur 8.07174 4.46986 26.4324
rtibia 44.0163
rfoot 0.316427 -3.24228
rtoes -8.51766
lfemur -22.5048 -1.68616 -17.8017
ltibia 25.7794
lfoot -2.09609 -4.76028
ltoes -1.02003
1084
root 0.641023 17.7283 39.1785 -2.25361 -3.91641 -2.81944
lowerback 9.61012 1.65242 4.14559
upperback -0.320609 2.71184 0.720662
thorax -5.57391 1.22632 -1.96014
lowerneck -15.9931 -3.57685 -1.63133
upperneck 20.5596 -4.98677 1.84843
head 9.19333 -2.25544 0.276697
rclavicle 1.78922e-014 2.08724e-014
rhumerus -22.818 -11.4264 -81.8923
rradius 33.6778
rwrist -1.07561
rhand -18.9008 23.7661
rfingers 7.12502
rthumb 7.40089 -6.08441
lclavicle 1.78922e-014 2.08724e-014
lhumerus -37.9089 14.6083 76.1614
lradius 16.0323
lwrist -1.87228
lhand -31.2711 14.6341
lfingers 7.12502
lthumb -4.54491 44.5654
rfemur 6.86004 4.36289 26.1074
rtibia 46.4929
rfoot 3.77865 -2.83709
rtoes -7.88236
lfemur -21.9655 -1.20209 -18.1132
ltibia 26.5684
lfoot -2.66738 -5.26766
ltoes 0.838366
1085
root 0.657469 17.7422 39.3812 -2.48543 -4.2663 -2.66635
lowerback 9.72415 1.71638 3.80504
upperback -0.255161 2.76479 0.775312
thorax -5.58414 1.26337 -1.72279
lowerneck -15.9563 -3.50025 -1.59718
upperneck 20.5524 -4.86369 1.73843
head 9.17769 -2.20807 0.249964
rclavicle -1.50377e-014 6.95746e-015
rhumerus -23.3858 -11.8048 -81.8282
rradius 33.7001
rwrist -0.914922
rhand -18.6675 23.7871
rfingers 7.12502
rthumb 7.62606 -6.05536
lclavicle -1.50377e-014 6.95746e-015
lhumerus -37.8598 13.8464 76.8393
lradius 16.403
lwrist 0.71188
lhand -31.4231 15.5198
lfingers 7.12502
lthumb -4.69169 45.4479
rfemur 5.5959 4.60886 25.8308
rtibia 49.0604
rfoot 7.01892 -2.59825
rtoes -4.95789
lfemur -21.2244 -0.584817 -18.4596
ltibia 27.0648
lfoot -3.46139 -5.616
ltoes 2.11093
1086
root 0.675615 17.7598 39.5902 -2.75673 -4.56763 -2.36716
lowerback 9.83887 1.80557 3.42609
upperback -0.185619 2.83985 0.720435
thorax -5.58628 1.31097 -1.58145
lowerneck -16.0492 -3.4685 -1.51002
upperneck 20.6783 -4.81768 1.62253
head 9.23206 -2.19063 0.199254
rclavicle 7.47151e-015 1.42131e-014
rhumerus -23.8747 -12.1328 -81.8188
rradius 33.6791
rwrist -0.869604
rhand -18.2146 22.9994
rfingers 7.12502
rthumb 8.06322 -6.8268
lclavicle 7.47151e-015 1.42131e-014
lhumerus -37.7322 13.3225 77.1408
lradius 16.8311
lwrist 1.74765
lhand -31.3311 21.2034
lfingers 7.12502
lthumb -4.6029 51.1334
rfemur 4.32797 4.76163 25.3472
rtibia 51.6226
rfoot 10.1586 -2.34941
rtoes -1.49458
lfemur -20.2508 -0.119029 -18.9593
ltibia 27.2934
lfoot -4.2961 -5.60538
ltoes 2.36308
1087
root 0.702176 17.7772 39.7914 -2.88491 -4.68462 -1.54571
lowerback 9.88588 1.87425 2.61417
upperback -0.173408 2.82772 0.524387
thorax -5.62847 1.32464 -1.3315
lowerneck -16.2503 -3.42676 -1.51362
upperneck 20.803 -4.75659 1.60886
head 9.31114 -2.16089 0.198391
rclavicle 2.65579e-014 2.5842e-015
rhumerus -24.0855 -12.2878 -81.7776
rradius 33.2359
rwrist -0.970133
rhand -17.8585 22.3947
rfingers 7.12502
rthumb 8.4069 -7.41803
lclavicle 2.65579e-014 2.5842e-015
lhumerus -37.579 13.1861 77.2135
lradius 17.3108
lwrist 1.68697
lhand -31.5714 31.4624
lfingers 7.12502
lthumb -4.83487 61.3872
rfemur 2.83356 4.59512 24.1188
rtibia 54.181
rfoot 13.4391 -1.87439
rtoes 1.79077
lfemur -19.3883 0.2452 -20.0848
ltibia 27.3329
lfoot -4.90125 -5.49789
ltoes 1.86323
1088
root 0.722724 17.7922 39.9837 -2.99821 -4.84554 -0.920622
lowerback 10.2505 1.89012 1.91123
upperback -0.538788 2.77545 0.388541
thorax -6.24782 1.30565 -1.09546
lowerneck -15.46 -3.42884 -1.80369
upperneck 20.8192 -4.76155 1.88293
head 9.18624 -2.16361 0.352875
rclavicle 6.35024e-015 3.8763e-015
rhumerus -25.0335 -12.3908 -81.6723
rradius 32.7674
rwrist -0.853749
rhand -17.4781 22.8922
rfingers 7.12502
rthumb 8.77396 -6.90538
lclavicle 6.35024e-015 3.8763e-015
lhumerus -38.2201 12.285 77.4729
lradius 17.9867
lwrist 2.77238
lhand -31.4254 37.8412
lfingers 7.12502
lthumb -4.69394 67.7692
rfemur 1.29702 4.55098 23.2443
rtibia 56.6766
rfoot 16.4802 -1.79067
rtoes 7.03615
lfemur -18.5303 0.551474 -20.93
ltibia 27.2415
lfoot -5.42291 -5.35561
ltoes 0.974091
